<svg xmlns="http://www.w3.org/2000/svg" width="180" height="120" viewBox="0 0 180 120">
  <defs>
    <filter id="grano" x="0" y="0" width="100%" height="100%">
      <feTurbulence type="fractalNoise" baseFrequency="0.9" numOctaves="2" seed="7" result="n"/>
      <feColorMatrix in="n" type="matrix"
        values="0 0 0 0 0  0 0 0 0 0  0 0 0 0 0  0 0 0 0.06 0"/>
      <feComposite operator="over" in2="SourceGraphic"/>
    </filter>
  </defs>

  <!-- color base de ladrillo (blanqueado) -->
  <rect width="180" height="120" fill="#d8d3c8"/>

  <!-- juntas de mortero (claras) -->
  <g stroke="#f1ede4" stroke-width="5">
    <!-- horizontales -->
    <line x1="0" y1="0" x2="180" y2="0"/>
    <line x1="0" y1="30" x2="180" y2="30"/>
    <line x1="0" y1="60" x2="180" y2="60"/>
    <line x1="0" y1="90" x2="180" y2="90"/>
    <line x1="0" y1="120" x2="180" y2="120"/>
    <!-- verticales fila A (running bond) -->
    <line x1="0" y1="0" x2="0" y2="30"/>
    <line x1="60" y1="0" x2="60" y2="30"/>
    <line x1="120" y1="0" x2="120" y2="30"/>
    <line x1="180" y1="0" x2="180" y2="30"/>
    <line x1="0" y1="60" x2="0" y2="90"/>
    <line x1="60" y1="60" x2="60" y2="90"/>
    <line x1="120" y1="60" x2="120" y2="90"/>
    <line x1="180" y1="60" x2="180" y2="90"/>
    <!-- verticales fila B (offset medio ladrillo) -->
    <line x1="30" y1="30" x2="30" y2="60"/>
    <line x1="90" y1="30" x2="90" y2="60"/>
    <line x1="150" y1="30" x2="150" y2="60"/>
    <line x1="30" y1="90" x2="30" y2="120"/>
    <line x1="90" y1="90" x2="90" y2="120"/>
    <line x1="150" y1="90" x2="150" y2="120"/>
  </g>

  <!-- ligera variación de tono en algunos ladrillos -->
  <g fill="#cdc7ba" opacity="0.55">
    <rect x="5" y="3" width="50" height="24"/>
    <rect x="95" y="33" width="50" height="24"/>
    <rect x="65" y="63" width="50" height="24"/>
    <rect x="35" y="93" width="50" height="24"/>
  </g>

  <!-- grano de superficie -->
  <rect width="180" height="120" filter="url(#grano)" opacity="0.5"/>
</svg>
