<svg xmlns="http://www.w3.org/2000/svg" width="184" height="124" viewBox="0 0 184 124">
  <defs>
    <!-- grano translúcido (solo ruido, no oscurece la base) -->
    <filter id="grano" x="0" y="0" width="100%" height="100%">
      <feTurbulence type="fractalNoise" baseFrequency="0.85" numOctaves="2" seed="5" result="n"/>
      <feColorMatrix in="n" type="matrix"
        values="0 0 0 0 0  0 0 0 0 0  0 0 0 0 0  0 0 0 0.5 0"/>
    </filter>
  </defs>

  <!-- mortero (casi blanco, pared blanqueada) -->
  <rect width="184" height="124" fill="#efe9df"/>

  <!-- ladrillos: running bond con variación tonal clara -->
  <g>
    <!-- fila 0 -->
    <rect x="2"   y="2"  width="56" height="26" rx="1.5" fill="#d6cfbf"/>
    <rect x="62"  y="2"  width="56" height="26" rx="1.5" fill="#dcd6c7"/>
    <rect x="122" y="2"  width="56" height="26" rx="1.5" fill="#d0c8b6"/>
    <!-- fila 1 (offset) -->
    <rect x="-28" y="32" width="56" height="26" rx="1.5" fill="#dad3c4"/>
    <rect x="32"  y="32" width="56" height="26" rx="1.5" fill="#cfc7b4"/>
    <rect x="92"  y="32" width="56" height="26" rx="1.5" fill="#d8d1c1"/>
    <rect x="152" y="32" width="56" height="26" rx="1.5" fill="#d3ccba"/>
    <!-- fila 2 -->
    <rect x="2"   y="62" width="56" height="26" rx="1.5" fill="#dcd6c7"/>
    <rect x="62"  y="62" width="56" height="26" rx="1.5" fill="#d0c8b6"/>
    <rect x="122" y="62" width="56" height="26" rx="1.5" fill="#d8d1c1"/>
    <!-- fila 3 (offset) -->
    <rect x="-28" y="92" width="56" height="26" rx="1.5" fill="#cfc7b4"/>
    <rect x="32"  y="92" width="56" height="26" rx="1.5" fill="#d8d1c1"/>
    <rect x="92"  y="92" width="56" height="26" rx="1.5" fill="#d3ccba"/>
    <rect x="152" y="92" width="56" height="26" rx="1.5" fill="#dad3c4"/>
  </g>

  <!-- grano de superficie muy sutil -->
  <rect width="184" height="124" filter="url(#grano)" opacity="0.14"/>
</svg>
